<?xml version="1.0" standalone="no"?>
<!DOCTYPE svg PUBLIC "-//W3C//DTD SVG 20010904//EN"
 "http://www.w3.org/TR/2001/REC-SVG-20010904/DTD/svg10.dtd">
<svg version="1.0" xmlns="http://www.w3.org/2000/svg"
 width="1000.000000pt" height="1000.000000pt" viewBox="0 0 1000.000000 1000.000000"
 preserveAspectRatio="xMidYMid meet">

<g transform="translate(0.000000,1000.000000) scale(0.100000,-0.100000)"
fill="#000000" stroke="none">
<path d="M4329 7685 c-107 -45 -227 -112 -339 -189 -151 -103 -330 -265 -330
-299 0 -3 80 -5 178 -4 187 1 211 -2 412 -60 108 -31 186 -61 200 -78 6 -7 38
-23 73 -35 34 -12 104 -42 156 -67 239 -112 329 -122 501 -56 58 23 149 62
203 87 54 25 104 46 111 46 7 0 27 11 46 25 35 26 226 93 350 122 59 14 114
18 262 17 160 -1 185 1 181 14 -11 26 -254 221 -387 309 -71 48 -183 113 -248
146 -116 60 -119 61 -156 47 -93 -33 -309 -226 -431 -384 -100 -130 -97 -126
-108 -126 -5 0 -39 35 -75 78 -82 96 -219 228 -323 312 -85 68 -179 131 -192
129 -4 0 -42 -16 -84 -34z"/>
<path d="M3083 7243 c15 -2 39 -2 55 0 15 2 2 4 -28 4 -30 0 -43 -2 -27 -4z"/>
<path d="M6868 7243 c18 -2 45 -2 60 0 15 2 0 4 -33 4 -33 0 -45 -2 -27 -4z"/>
<path d="M3010 7230 c-8 -5 -10 -10 -5 -10 6 0 17 5 25 10 8 5 11 10 5 10 -5
0 -17 -5 -25 -10z"/>
<path d="M2951 7194 c-18 -14 -36 -36 -42 -48 -8 -17 -7 -16 10 4 11 14 32 35
48 47 15 13 25 23 21 23 -3 0 -20 -12 -37 -26z"/>
<path d="M3271 7176 c14 -17 33 -42 42 -56 10 -13 17 -19 17 -13 0 6 -19 31
-42 55 -24 24 -31 30 -17 14z"/>
<path d="M6724 7178 l-29 -33 33 29 c30 28 37 36 29 36 -2 0 -16 -15 -33 -32z"/>
<path d="M7060 7175 c13 -14 26 -25 28 -25 3 0 -5 11 -18 25 -13 14 -26 25
-28 25 -3 0 5 -11 18 -25z"/>
<path d="M7108 7100 c9 -21 18 -35 20 -30 3 9 -25 70 -33 70 -2 0 4 -18 13
-40z"/>
<path d="M3112 7110 c21 -4 46 -13 56 -21 10 -8 7 -4 -6 9 -15 14 -34 22 -55
21 -32 -1 -32 -1 5 -9z"/>
<path d="M6857 7113 c-3 -5 17 -8 43 -8 27 0 43 3 37 7 -16 10 -75 10 -80 1z"/>
<path d="M3331 7074 c0 -11 3 -14 6 -6 3 7 2 16 -1 19 -3 4 -6 -2 -5 -13z"/>
<path d="M6662 7055 c0 -16 2 -22 5 -12 2 9 2 23 0 30 -3 6 -5 -1 -5 -18z"/>
<path d="M2873 7015 c0 -27 2 -38 4 -22 2 15 2 37 0 50 -2 12 -4 0 -4 -28z"/>
<path d="M3341 7015 c-1 -22 -8 -58 -16 -80 -12 -35 -12 -38 0 -21 18 24 28
74 22 112 -3 24 -4 22 -6 -11z"/>
<path d="M7132 7020 c-1 -19 -5 -46 -7 -60 l-6 -25 11 25 c6 13 9 40 7 60 l-4
35 -1 -35z"/>
<path d="M6662 6980 c0 -14 2 -19 5 -12 2 6 2 18 0 25 -3 6 -5 1 -5 -13z"/>
<path d="M3895 6953 c-75 -17 -100 -28 -145 -64 -127 -100 -147 -318 -40 -432
25 -28 42 -39 48 -32 6 6 31 57 58 115 49 110 101 192 202 324 34 44 59 83 56
88 -5 8 -143 9 -179 1z"/>
<path d="M5947 6937 l-27 -12 22 -25 c129 -143 209 -256 268 -374 64 -129 96
-127 135 9 50 169 -48 366 -201 404 -56 14 -162 13 -197 -2z"/>
<path d="M6810 6946 c0 -2 8 -10 18 -17 15 -13 16 -12 3 4 -13 16 -21 21 -21
13z"/>
<path d="M4304 6914 c-18 -14 -18 -15 4 -4 12 6 22 13 22 15 0 8 -5 6 -26 -11z"/>
<path d="M5670 6916 c0 -2 7 -7 16 -10 8 -3 12 -2 9 4 -6 10 -25 14 -25 6z"/>
<path d="M4480 6900 c8 -5 20 -10 25 -10 6 0 3 5 -5 10 -8 5 -19 10 -25 10 -5
0 -3 -5 5 -10z"/>
<path d="M5500 6900 c-8 -5 -10 -10 -5 -10 6 0 17 5 25 10 8 5 11 10 5 10 -5
0 -17 -5 -25 -10z"/>
<path d="M5425 6875 c-39 -17 -21 -18 25 0 19 7 28 14 20 14 -8 0 -28 -6 -45
-14z"/>
<path d="M3031 6783 c7 -10 15 -20 16 -22 2 -2 3 3 3 11 0 9 -7 19 -16 22 -15
6 -15 4 -3 -11z"/>
<path d="M3181 6774 c0 -11 3 -14 6 -6 3 7 2 16 -1 19 -3 4 -6 -2 -5 -13z"/>
<path d="M6967 6783 c-4 -3 -7 -11 -7 -17 0 -6 5 -5 12 2 6 6 9 14 7 17 -3 3
-9 2 -12 -2z"/>
<path d="M5870 6680 c6 -11 13 -20 16 -20 2 0 0 9 -6 20 -6 11 -13 20 -16 20
-2 0 0 -9 6 -20z"/>
<path d="M6963 6645 c0 -33 2 -45 4 -27 2 18 2 45 0 60 -2 15 -4 0 -4 -33z"/>
<path d="M3043 6630 c0 -36 2 -50 4 -32 2 17 2 47 0 65 -2 17 -4 3 -4 -33z"/>
<path d="M5919 6605 c5 -11 17 -29 26 -40 l16 -20 -10 20 c-5 11 -17 29 -26
40 l-16 20 10 -20z"/>
<path d="M6810 6588 c-12 -22 -12 -22 6 -6 10 10 15 20 12 24 -4 3 -12 -5 -18
-18z"/>
<path d="M6875 6478 l-80 -83 83 80 c45 44 82 81 82 82 0 8 -11 -3 -85 -79z"/>
<path d="M5970 6520 c6 -11 13 -20 16 -20 2 0 0 9 -6 20 -6 11 -13 20 -16 20
-2 0 0 -9 6 -20z"/>
<path d="M6034 6398 c18 -40 38 -84 44 -98 l12 -25 -6 25 c-7 30 -71 170 -78
170 -3 0 10 -33 28 -72z"/>
<path d="M2651 6456 c2 -2 31 -6 64 -9 36 -3 52 -2 40 3 -19 8 -113 14 -104 6z"/>
<path d="M3948 6385 c-17 -37 -28 -68 -26 -70 2 -3 18 27 35 65 40 89 32 92
-9 5z"/>
<path d="M2780 6436 c0 -2 7 -7 16 -10 8 -3 12 -2 9 4 -6 10 -25 14 -25 6z"/>
<path d="M2535 6399 c-35 -31 -71 -86 -62 -95 2 -3 10 9 17 26 7 17 31 46 53
65 22 19 38 35 34 35 -3 0 -22 -14 -42 -31z"/>
<path d="M3320 6285 c30 -30 57 -55 59 -55 3 0 -19 25 -49 55 -30 30 -57 55
-59 55 -3 0 19 -25 49 -55z"/>
<path d="M2665 6321 c-15 -6 -7 -9 32 -12 29 -2 49 -1 45 3 -13 12 -57 17 -77
9z"/>
<path d="M5628 6303 c6 -2 18 -2 25 0 6 3 1 5 -13 5 -14 0 -19 -2 -12 -5z"/>
<path d="M2456 6254 c-13 -64 18 -148 71 -194 l28 -25 -26 30 c-46 52 -62 95
-63 163 0 34 -1 62 -2 62 -1 0 -5 -16 -8 -36z"/>
<path d="M2770 6285 c0 -5 5 -17 10 -25 5 -8 10 -10 10 -5 0 6 -5 17 -10 25
-5 8 -10 11 -10 5z"/>
<path d="M7298 6263 c18 -2 45 -2 60 0 15 2 0 4 -33 4 -33 0 -45 -2 -27 -4z"/>
<path d="M3618 6253 c12 -2 32 -2 45 0 12 2 2 4 -23 4 -25 0 -35 -2 -22 -4z"/>
<path d="M7391 6257 c16 -12 79 -45 79 -42 0 7 -63 45 -74 45 -5 0 -7 -1 -5
-3z"/>
<path d="M6092 6220 c0 -14 2 -19 5 -12 2 6 2 18 0 25 -3 6 -5 1 -5 -13z"/>
<path d="M7169 6213 l-24 -28 28 24 c15 14 27 26 27 28 0 8 -8 1 -31 -24z"/>
<path d="M3425 6180 c10 -11 20 -20 23 -20 3 0 -3 9 -13 20 -10 11 -20 20 -23
20 -3 0 3 -9 13 -20z"/>
<path d="M6301 6184 c0 -11 3 -14 6 -6 3 7 2 16 -1 19 -3 4 -6 -2 -5 -13z"/>
<path d="M7500 6181 c5 -11 15 -23 21 -27 6 -3 3 5 -6 20 -20 30 -30 35 -15 7z"/>
<path d="M3691 6174 c0 -11 3 -14 6 -6 3 7 2 16 -1 19 -3 4 -6 -2 -5 -13z"/>
<path d="M6102 6090 c0 -73 2 -96 8 -76 5 15 5 63 1 105 l-8 76 -1 -105z"/>
<path d="M7313 6143 c9 -2 23 -2 30 0 6 3 -1 5 -18 5 -16 0 -22 -2 -12 -5z"/>
<path d="M2637 6129 c7 -7 15 -10 18 -7 3 3 -2 9 -12 12 -14 6 -15 5 -6 -5z"/>
<path d="M7548 6085 c14 -50 14 -61 0 -111 -17 -59 -9 -63 11 -5 15 46 14 95
-3 136 -22 52 -25 42 -8 -20z"/>
<path d="M3533 6123 c15 -2 39 -2 55 0 15 2 2 4 -28 4 -30 0 -43 -2 -27 -4z"/>
<path d="M6368 6123 c6 -2 18 -2 25 0 6 3 1 5 -13 5 -14 0 -19 -2 -12 -5z"/>
<path d="M2890 6100 c0 -5 5 -10 11 -10 5 0 7 5 4 10 -3 6 -8 10 -11 10 -2 0
-4 -4 -4 -10z"/>
<path d="M3903 6045 c0 -27 2 -38 4 -22 2 15 2 37 0 50 -2 12 -4 0 -4 -28z"/>
<path d="M7082 6030 c-8 -13 -8 -20 -2 -20 6 0 13 7 17 15 9 24 -1 27 -15 5z"/>
<path d="M2790 6003 c8 -3 22 -11 30 -17 13 -10 13 -9 1 7 -7 9 -21 17 -30 16
-13 0 -14 -1 -1 -6z"/>
<path d="M4681 5984 c0 -11 3 -14 6 -6 3 7 2 16 -1 19 -3 4 -6 -2 -5 -13z"/>
<path d="M2875 5940 c10 -11 20 -20 23 -20 3 0 -3 9 -13 20 -10 11 -20 20 -23
20 -3 0 3 -9 13 -20z"/>
<path d="M7280 5940 c8 -5 22 -9 30 -9 10 0 8 3 -5 9 -27 12 -43 12 -25 0z"/>
<path d="M7509 5893 c-13 -16 -12 -17 4 -4 9 7 17 15 17 17 0 8 -8 3 -21 -13z"/>
<path d="M7080 5839 c-30 -28 -41 -42 -25 -31 17 11 39 29 49 41 11 12 25 21
33 21 7 0 13 5 13 10 0 18 -15 10 -70 -41z"/>
<path d="M3970 5856 c0 -2 8 -10 18 -17 15 -13 16 -12 3 4 -13 16 -21 21 -21
13z"/>
<path d="M2970 5847 c0 -2 15 -16 33 -33 l32 -29 -29 33 c-28 30 -36 37 -36
29z"/>
<path d="M6332 5820 c0 -19 2 -27 5 -17 2 9 2 25 0 35 -3 9 -5 1 -5 -18z"/>
<path d="M5999 5823 c-13 -16 -12 -17 4 -4 9 7 17 15 17 17 0 8 -8 3 -21 -13z"/>
<path d="M4035 5780 c10 -11 20 -20 23 -20 3 0 -3 9 -13 20 -10 11 -20 20 -23
20 -3 0 3 -9 13 -20z"/>
<path d="M5934 5748 l-19 -23 23 19 c21 18 27 26 19 26 -2 0 -12 -10 -23 -22z"/>
<path d="M3823 5665 c-38 -55 -133 -163 -206 -232 -41 -40 -72 -73 -69 -73 4
0 -23 -29 -58 -65 -45 -46 -72 -65 -90 -65 -16 0 -21 -3 -13 -8 8 -5 19 -56
28 -118 14 -104 51 -265 75 -329 11 -29 47 -75 60 -75 3 0 11 48 18 106 7 59
20 123 28 143 9 20 23 58 31 85 19 64 127 213 289 401 83 96 82 90 9 176 -36
40 -69 75 -74 77 -5 2 -18 -9 -28 -23z"/>
<path d="M6083 5627 c-77 -81 -77 -83 14 -194 202 -248 323 -428 323 -483 0
-10 7 -34 15 -53 9 -22 15 -67 15 -112 0 -41 3 -75 8 -75 17 1 43 29 56 61 42
99 86 311 86 409 0 28 5 40 18 43 10 3 5 5 -12 6 -23 1 -60 33 -195 169 -92
92 -186 193 -209 225 -24 31 -49 57 -56 57 -7 0 -36 -24 -63 -53z"/>
<path d="M2913 5513 c9 -2 23 -2 30 0 6 3 -1 5 -18 5 -16 0 -22 -2 -12 -5z"/>
<path d="M7053 5513 c9 -2 25 -2 35 0 9 3 1 5 -18 5 -19 0 -27 -2 -17 -5z"/>
<path d="M2789 5477 c-47 -31 -96 -108 -105 -163 -7 -49 5 -106 30 -139 10
-13 8 0 -6 38 -19 51 -20 63 -9 112 14 62 58 128 101 150 16 8 30 18 30 20 0
8 -6 6 -41 -18z"/>
<path d="M7150 5496 c0 -2 7 -7 16 -10 8 -3 12 -2 9 4 -6 10 -25 14 -25 6z"/>
<path d="M7252 5413 c18 -28 35 -49 37 -47 5 4 -37 70 -54 84 -9 7 -1 -10 17
-37z"/>
<path d="M5670 5406 c0 -19 3 -37 8 -40 4 -2 6 13 4 35 -5 48 -12 51 -12 5z"/>
<path d="M4898 5403 c79 -2 205 -2 280 0 75 1 11 3 -143 3 -154 0 -216 -2
-137 -3z"/>
<path d="M7014 5385 c-32 -17 -74 -79 -61 -91 4 -4 7 0 7 9 0 25 48 75 79 82
36 8 80 -9 109 -43 20 -22 22 -23 13 -4 -25 49 -97 72 -147 47z"/>
<path d="M2875 5381 c-11 -5 -29 -19 -40 -31 -18 -20 -16 -20 19 4 75 51 144
20 157 -70 l6 -49 1 45 c2 81 -69 131 -143 101z"/>
<path d="M7291 5287 c-1 -75 -19 -127 -59 -172 l-27 -30 28 25 c56 49 88 151
68 215 -8 26 -9 20 -10 -38z"/>
<path d="M4264 5265 c-7 -19 -14 -47 -13 -62 0 -23 3 -19 13 17 7 25 16 53 21
63 4 9 4 17 1 17 -4 0 -14 -16 -22 -35z"/>
<path d="M5739 5254 c9 -25 17 -38 19 -30 3 13 -24 76 -32 76 -2 0 4 -21 13
-46z"/>
<path d="M3140 5220 c0 -5 7 -7 15 -4 8 4 15 8 15 10 0 2 -7 4 -15 4 -8 0 -15
-4 -15 -10z"/>
<path d="M6837 5210 c10 -11 19 -20 21 -20 1 0 -2 9 -8 20 -6 11 -15 20 -20
20 -6 0 -2 -9 7 -20z"/>
<path d="M2868 5188 c5 -5 16 -8 23 -6 8 3 3 7 -10 11 -17 4 -21 3 -13 -5z"/>
<path d="M4865 5140 c21 -22 41 -40 44 -40 3 0 -13 18 -34 40 -21 22 -41 40
-44 40 -3 0 13 -18 34 -40z"/>
<path d="M2750 5125 c13 -14 26 -25 28 -25 3 0 -5 11 -18 25 -13 14 -26 25
-28 25 -3 0 5 -11 18 -25z"/>
<path d="M3937 5033 c-167 -207 -223 -385 -160 -507 46 -90 326 -325 564 -474
72 -45 139 -77 139 -65 0 5 -34 50 -75 101 -82 102 -132 193 -190 347 -68 180
-148 481 -160 604 -12 119 -18 119 -118 -6z"/>
<path d="M4305 5125 c17 -8 37 -14 45 -14 8 0 -1 7 -20 14 -46 18 -64 17 -25
0z"/>
<path d="M5961 5108 c-5 -13 -12 -50 -16 -83 -13 -114 -70 -342 -126 -502 -51
-151 -142 -318 -235 -436 -46 -58 -84 -108 -84 -110 0 -6 70 8 95 19 117 48
528 384 625 511 36 46 40 58 40 107 0 56 -26 139 -70 227 -27 53 -200 289
-212 289 -5 0 -12 -10 -17 -22z"/>
<path d="M4431 5074 c6 -8 18 -14 26 -14 20 0 8 16 -17 23 -17 4 -19 3 -9 -9z"/>
<path d="M5568 5083 c-10 -2 -18 -9 -18 -14 0 -14 26 -11 40 6 13 15 9 16 -22
8z"/>
<path d="M5683 4983 c-13 -27 -28 -41 -53 -50 -21 -7 -27 -12 -15 -12 36 -1
68 23 81 62 7 20 11 37 9 37 -2 0 -12 -17 -22 -37z"/>
<path d="M4338 4933 c7 -3 16 -2 19 1 4 3 -2 6 -13 5 -11 0 -14 -3 -6 -6z"/>
<path d="M5500 4900 c-9 -6 -10 -10 -3 -10 6 0 18 -3 26 -6 8 -3 17 2 20 10 7
18 -19 22 -43 6z"/>
<path d="M5620 4856 c0 -2 7 -7 16 -10 8 -3 12 -2 9 4 -6 10 -25 14 -25 6z"/>
<path d="M4380 4756 c0 -2 8 -10 18 -17 15 -13 16 -12 3 4 -13 16 -21 21 -21
13z"/>
<path d="M5579 4733 l-24 -28 28 24 c25 23 32 31 24 31 -2 0 -14 -12 -28 -27z"/>
<path d="M5481 4494 c0 -11 3 -14 6 -6 3 7 2 16 -1 19 -3 4 -6 -2 -5 -13z"/>
<path d="M4520 4471 c0 -11 4 -22 9 -25 4 -3 6 6 3 19 -5 30 -12 33 -12 6z"/>
<path d="M5466 4454 c-4 -9 -4 -19 -1 -22 2 -3 7 3 11 12 4 9 4 19 1 22 -2 3
-7 -3 -11 -12z"/>
<path d="M5375 4318 l-40 -43 43 40 c23 21 42 40 42 42 0 8 -9 0 -45 -39z"/>
<path d="M4770 4315 c0 -15 18 -40 24 -34 3 3 -1 14 -9 25 -8 10 -14 15 -15 9z"/>
<path d="M5207 4296 c-15 -23 -15 -24 3 -19 11 3 20 14 20 24 0 25 -4 24 -23
-5z"/>
<path d="M4935 4130 c10 -11 20 -20 23 -20 3 0 -3 9 -13 20 -10 11 -20 20 -23
20 -3 0 3 -9 13 -20z"/>
<path d="M5049 4123 c-13 -16 -12 -17 4 -4 16 13 21 21 13 21 -2 0 -10 -8 -17
-17z"/>
<path d="M6416 3377 c-14 -13 -44 -72 -71 -142 -26 -66 -75 -192 -110 -280
-35 -88 -78 -198 -95 -245 -18 -47 -41 -102 -52 -123 -19 -39 -18 -67 2 -67 6
0 8 5 4 11 -5 8 -1 8 14 0 27 -14 152 -15 152 0 0 5 5 7 10 4 10 -6 80 133 80
160 0 11 32 15 165 17 91 2 170 2 175 0 6 -2 10 -11 10 -20 0 -9 9 -30 20 -47
11 -16 20 -38 20 -48 0 -24 30 -68 41 -61 5 3 9 0 9 -5 0 -12 162 -16 173 -5
3 3 2 16 -3 27 -5 12 -28 76 -51 142 -63 184 -216 563 -255 633 l-35 62 -57 1
c-31 0 -71 2 -89 5 -23 3 -39 -2 -57 -19z m125 -224 c5 -15 15 -49 21 -76 5
-27 21 -74 35 -105 15 -34 22 -65 18 -79 -5 -22 -10 -23 -84 -23 -60 0 -84 4
-96 16 -10 11 -12 20 -6 28 15 18 51 119 51 142 0 31 31 124 42 124 5 0 13
-12 19 -27z"/>
<path d="M7111 3392 c-12 -9 -15 -79 -16 -429 -1 -230 0 -424 3 -430 2 -7 8
-13 14 -13 5 0 6 5 2 11 -4 7 1 7 16 -1 17 -9 92 -11 284 -8 248 3 263 5 308
27 27 12 63 40 81 62 47 55 61 103 52 183 -6 59 -11 70 -50 114 -55 61 -65 95
-37 125 52 58 68 155 36 223 -17 35 -89 104 -108 104 -6 0 -24 7 -41 16 -24
12 -80 16 -280 20 -157 4 -255 2 -264 -4z m469 -165 c63 -21 68 -116 8 -160
-21 -16 -47 -21 -126 -25 -55 -2 -116 -2 -135 2 l-35 6 6 88 c2 48 10 90 16
94 18 12 228 8 266 -5z m55 -359 c19 -22 23 -35 18 -65 -6 -43 -40 -110 -58
-117 -27 -10 -261 -17 -274 -8 -10 7 -16 41 -20 112 -3 56 -4 104 -1 107 3 3
74 3 158 1 153 -3 154 -3 177 -30z"/>
<path d="M4963 3315 c0 -44 2 -61 4 -37 2 23 2 59 0 80 -2 20 -4 1 -4 -43z"/>
<path d="M5400 2960 l0 -430 274 0 c151 0 281 3 290 6 17 7 21 55 10 113 l-6
31 -175 0 c-101 0 -182 4 -194 10 -18 10 -19 25 -19 355 l0 345 -90 0 -90 0 0
-430z"/>
<path d="M3114 3240 c0 -80 2 -112 3 -72 2 39 2 105 0 145 -1 39 -3 7 -3 -73z"/>
<path d="M4384 3195 c0 -99 2 -138 3 -87 2 51 2 132 0 180 -1 48 -3 6 -3 -93z"/>
<path d="M4571 3003 c1 -89 16 -85 18 5 1 23 6 42 11 42 6 0 5 8 -2 20 -23 36
-28 22 -27 -67z"/>
<path d="M3114 2850 c0 -85 2 -120 3 -77 2 42 2 112 0 155 -1 42 -3 7 -3 -78z"/>
<path d="M4571 2683 c0 -85 3 -143 9 -143 11 0 11 174 0 240 -5 32 -8 4 -9
-97z"/>
<path d="M4382 2780 c0 -14 2 -19 5 -12 2 6 2 18 0 25 -3 6 -5 1 -5 -13z"/>
<path d="M3350 2730 c6 -11 13 -20 16 -20 2 0 0 9 -6 20 -6 11 -13 20 -16 20
-2 0 0 -9 6 -20z"/>
<path d="M4382 2585 c0 -16 2 -22 5 -12 2 9 2 23 0 30 -3 6 -5 -1 -5 -18z"/>
<path d="M3001 2519 c29 -6 56 -5 70 0 18 8 7 10 -46 9 -70 0 -70 0 -24 -9z"/>
<path d="M4415 2520 c3 -5 35 -10 70 -10 35 0 67 5 70 10 4 6 -22 10 -70 10
-48 0 -74 -4 -70 -10z"/>
<path d="M5043 2518 c33 -7 59 -7 80 0 27 8 20 10 -48 10 -79 0 -79 0 -32 -10z"/>
<path d="M3648 2513 c7 -3 16 -2 19 1 4 3 -2 6 -13 5 -11 0 -14 -3 -6 -6z"/>
<path d="M3858 2513 c7 -3 16 -2 19 1 4 3 -2 6 -13 5 -11 0 -14 -3 -6 -6z"/>
<path d="M3723 2503 c20 -2 54 -2 75 0 20 2 3 4 -38 4 -41 0 -58 -2 -37 -4z"/>
</g>
</svg>
