<?xml version="1.0" standalone="no"?>
<!DOCTYPE svg PUBLIC "-//W3C//DTD SVG 20010904//EN"
 "http://www.w3.org/TR/2001/REC-SVG-20010904/DTD/svg10.dtd">
<svg version="1.0" xmlns="http://www.w3.org/2000/svg"
 width="225.000000pt" height="225.000000pt" viewBox="0 0 225.000000 225.000000"
 preserveAspectRatio="xMidYMid meet">

<g transform="translate(0.000000,225.000000) scale(0.100000,-0.100000)"
fill="#000000" stroke="none">
<path d="M940 1710 c-19 -10 -53 -34 -74 -52 l-40 -35 65 -6 c40 -4 90 -17
130 -35 101 -47 100 -47 195 -6 53 23 110 39 147 43 l62 6 -66 48 c-96 68
-113 69 -171 11 -27 -26 -48 -51 -48 -56 0 -18 -18 -6 -73 47 -31 30 -65 55
-74 55 -10 -1 -34 -9 -53 -20z"/>
<path d="M842 1547 c-20 -23 -23 -61 -8 -82 14 -20 15 -19 26 9 6 16 20 42 31
57 l20 29 -29 0 c-16 0 -34 -6 -40 -13z"/>
<path d="M1377 1506 c20 -30 40 -53 44 -50 4 2 6 21 4 41 -4 41 -26 63 -62 63
-22 0 -22 -2 14 -54z"/>
<path d="M815 1224 c-54 -56 -52 -48 -30 -139 7 -30 7 -30 19 16 7 25 29 66
49 91 40 49 44 60 25 75 -9 7 -27 -6 -63 -43z"/>
<path d="M1371 1267 c-17 -17 -14 -26 20 -65 18 -20 42 -59 54 -86 l22 -51 8
53 7 53 -50 53 c-36 38 -54 50 -61 43z"/>
<path d="M878 1120 c-18 -24 -28 -51 -28 -73 0 -37 22 -60 120 -128 l35 -24
-21 30 c-18 26 -48 91 -49 105 0 3 -6 25 -12 50 -7 25 -14 53 -15 62 -2 12
-10 6 -30 -22z"/>
<path d="M1340 1130 c0 -31 -38 -140 -66 -187 -14 -24 -21 -43 -16 -43 4 0 38
25 75 55 58 48 67 60 67 88 0 18 -11 49 -25 70 -29 42 -35 45 -35 17z"/>
<path d="M1220 665 l0 -95 60 0 c46 0 60 3 60 14 0 10 -14 16 -42 18 l-43 3
-3 78 c-2 59 -6 77 -17 77 -12 0 -15 -18 -15 -95z"/>
<path d="M1427 723 c-8 -21 -23 -58 -32 -83 -10 -25 -19 -51 -22 -57 -9 -22
35 -15 47 7 8 15 21 20 50 20 30 0 40 -5 45 -20 6 -19 45 -29 45 -12 0 13 -40
124 -56 154 -22 42 -57 38 -77 -9z m58 -50 c6 -29 4 -33 -14 -33 -22 0 -26 16
-15 58 8 28 20 18 29 -25z"/>
<path d="M1600 665 l0 -95 63 0 c91 0 132 36 92 80 -13 14 -14 22 -4 44 10 22
9 29 -6 46 -14 16 -31 20 -82 20 l-63 0 0 -95z m117 49 c7 -20 -13 -34 -49
-34 -23 0 -28 4 -28 25 0 22 4 25 35 25 23 0 38 -6 42 -16z m-6 -64 c15 -9 17
-15 9 -30 -13 -24 -68 -28 -76 -5 -15 38 23 58 67 35z"/>
</g>
</svg>
